<?xml version="1.0" encoding="UTF-8"?>
<svg id="Layer_1" data-name="Layer 1" xmlns="http://www.w3.org/2000/svg" viewBox="0 0 1024 1024">
  <defs>
    <style>
      .cls-1 {
        fill: #fff;
      }
    </style>
  </defs>
  <path class="cls-1" d="M478.64,1.21c-2.2,.2-9.19,.9-15.48,1.4C318.01,15.69,182.05,94.01,95.94,214.38,47.99,281.31,17.32,357.23,5.74,437.64c-4.1,28.07-4.6,36.36-4.6,74.42s.5,46.35,4.6,74.42c27.77,191.9,164.33,353.13,349.53,412.86,33.16,10.69,68.13,17.98,107.89,22.38,15.48,1.7,82.41,1.7,97.9,0,68.63-7.59,126.77-24.57,184.11-53.84,8.79-4.5,10.49-5.69,9.29-6.69-.8-.6-38.26-50.85-83.21-111.58l-81.71-110.38-102.39-151.54c-56.34-83.31-102.69-151.44-103.09-151.44-.4-.1-.8,67.23-1,149.44-.3,143.95-.4,149.74-2.2,153.14-2.6,4.89-4.6,6.89-8.79,9.09-3.2,1.6-5.99,1.9-21.08,1.9h-17.28l-4.6-2.9c-3-1.9-5.19-4.4-6.69-7.29l-2.1-4.5,.2-200.29,.3-200.39,3.1-3.9c1.6-2.1,4.99-4.79,7.39-6.09,4.1-2,5.69-2.2,22.98-2.2,20.38,0,23.77,.8,29.07,6.59,1.5,1.6,56.94,85.11,123.27,185.7,66.33,100.59,157.03,237.95,201.59,305.38l80.91,122.57,4.1-2.7c36.26-23.58,74.62-57.14,104.99-92.1,64.63-74.22,106.29-164.73,120.27-261.22,4.1-28.07,4.6-36.36,4.6-74.42s-.5-46.35-4.6-74.42c-27.77-191.9-164.33-353.13-349.53-412.86-32.67-10.59-67.43-17.88-106.39-22.28-9.59-1-75.62-2.1-83.91-1.3h0Zm209.18,309.07c4.79,2.4,8.69,6.99,10.09,11.79,.8,2.6,1,58.14,.8,183.31l-.3,179.61-31.67-48.55-31.77-48.55v-130.56c0-84.41,.4-131.86,1-134.16,1.6-5.59,5.09-9.99,9.89-12.59,4.1-2.1,5.59-2.3,21.28-2.3,14.78,0,17.38,.2,20.68,2h0Z"/>
</svg>