<?xml version="1.0" encoding="UTF-8"?>
<svg id="Layer_1" data-name="Layer 1" xmlns="http://www.w3.org/2000/svg" viewBox="0 0 1024 1024">
  <defs>
    <style>
      .cls-1 {
        fill: #fff;
      }

      .cls-1, .cls-2 {
        fill-rule: evenodd;
      }

      .cls-2 {
        fill: #0c344b;
      }
    </style>
  </defs>
  <path class="cls-2" d="M930.49,780.85L585.85,49l-7.85-16.68h0c-8.92-18.79-27.43-31.16-48.2-32.22-21.45-1.25-40.67,9.1-51.51,26.71l-13.7,22.19L100.71,638.37l-4.72,7.64c-11.85,19.09-11.59,43.32,.68,62.16l4.04,6.26,164.34,254.57,18.49,28.65c11.14,17.28,30.43,27.28,50.49,27.28,5.69,0,11.41-.8,17.03-2.47l180.76-53.46,361.68-106.97c16.52-4.84,30.13-16.61,37.32-32.25,7.09-15.57,6.97-33.46-.33-48.93Zm-78.92,32.12l-460.25,136.12c-14.06,4.17-27.54-8-24.59-22.18L531.16,139.48c3.07-14.72,23.43-17.06,29.85-3.42l304.43,646.47c5.75,12.2-.8,26.58-13.87,30.44Z"/>
  <path class="cls-1" d="M851.57,812.97l-460.25,136.12c-14.06,4.17-27.54-8-24.59-22.18L531.16,139.48c3.07-14.72,23.43-17.06,29.85-3.42l304.43,646.47c5.75,12.2-.8,26.58-13.87,30.44Z"/>
</svg>