<?xml version="1.0" encoding="utf-8"?>
<!-- Generator: Adobe Illustrator 27.0.0, SVG Export Plug-In . SVG Version: 6.00 Build 0)  -->
<svg version="1.1" id="Layer_1" xmlns="http://www.w3.org/2000/svg" xmlns:xlink="http://www.w3.org/1999/xlink" x="0px" y="0px"
	 viewBox="0 0 75.1 74.1" style="enable-background:new 0 0 75.1 74.1;" xml:space="preserve">
<style type="text/css">
	.st0{fill:#5C84EB;}
</style>
<g>
	<path class="st0" d="M20.7,19.8c0,0-1.5,1.4-0.6,3.9s18.7,45.9,18.7,45.9s2.4,3.6,5,0l4.4-12.9l16.3,16.5c0,0,1,2.2,3.4,0l6.7-6.7
		c0,0,1.7-1-0.4-3C72,61.4,58,47.8,58,47.8l12.2-5.1c0,0,3.7-1.9,0-4.6S23.3,19.5,23.3,19.5S21.7,18.8,20.7,19.8L20.7,19.8z"/>
	<g>
		<path class="st0" d="M32.3,14.6L40,7c0.4-0.4,1-0.4,1.4,0l2.3,2.3c0.4,0.4,0.4,1,0,1.4L36,18.3c-0.4,0.4-1,0.4-1.4,0L32.3,16
			C31.9,15.6,31.9,15,32.3,14.6z"/>
		<path class="st0" d="M23.1,11.8V1c0-0.6,0.5-1,1-1h3.2c0.6,0,1,0.5,1,1v10.8c0,0.6-0.5,1-1,1h-3.2C23.6,12.8,23.1,12.4,23.1,11.8z
			"/>
		<path class="st0" d="M14.6,16.4L7,8.7c-0.4-0.4-0.4-1,0-1.4L9.2,5c0.4-0.4,1-0.4,1.4,0l7.6,7.6c0.4,0.4,0.4,1,0,1.4L16,16.4
			C15.6,16.8,15,16.8,14.6,16.4z"/>
		<path class="st0" d="M11.8,25.6H1c-0.6,0-1-0.5-1-1v-3.2c0-0.6,0.5-1,1-1h10.8c0.6,0,1,0.5,1,1v3.2C12.8,25.2,12.4,25.6,11.8,25.6
			z"/>
		<path class="st0" d="M16.4,34.1l-7.6,7.6c-0.4,0.4-1,0.4-1.4,0L5,39.5c-0.4-0.4-0.4-1,0-1.4l7.6-7.6c0.4-0.4,1-0.4,1.4,0l2.3,2.3
			C16.8,33.1,16.8,33.7,16.4,34.1z"/>
	</g>
</g>
</svg>
