<?xml version="1.0" encoding="UTF-8"?><svg id="a" xmlns="http://www.w3.org/2000/svg" xmlns:xlink="http://www.w3.org/1999/xlink" viewBox="0 0 217.3 115.3"><defs><style>.cc{opacity:.9;}.cd{clip-path:url(#bk);}.ce{clip-path:url(#bf);}.cf{clip-path:url(#aq);}.cg{clip-path:url(#aj);}.ch{fill:#0d9bd8;}.ch,.ci,.cj,.ck{stroke-width:0px;}.ci{fill:none;}.cl{clip-path:url(#bq);}.cj{fill:#b3d6a7;}.cm{clip-path:url(#f);}.ck{fill:#fff;}.cn{clip-path:url(#c);}</style><clipPath id="c"><rect class="ci" x="4.3" y="4.9" width="210.4" height="105.7"/></clipPath><clipPath id="f"><path class="ci" d="m8.6,5.9c-2.3,0-4.2,1.9-4.2,4.2v95.6c0,2.3,1.9,4.2,4.2,4.2h48.6L161.2,5.9H8.6Z"/></clipPath><clipPath id="aj"><rect class="ci" x="4.3" y="4.9" width="210.4" height="105.7"/></clipPath><clipPath id="aq"><rect class="ci" x="144.2" y="11.8" width="60.1" height="44.7"/></clipPath><clipPath id="bf"><rect class="ci" x="130.8" y="51.2" width="8.6" height="8.8"/></clipPath><clipPath id="bk"><rect class="ci" x="136.9" y="51.2" width="7.3" height="8.9"/></clipPath><clipPath id="bq"><rect class="ci" x="169.2" y="41.2" width="17.7" height="17.7"/></clipPath></defs><g id="b"><g class="cn"><g id="d"><g id="e"><g class="cm"><g id="g"><g id="h"><path class="ck" d="m19.8,24.3h-10.1c-1.6,0-2.9-1.3-2.9-2.9v-10.1c0-1.6,1.3-2.9,2.9-2.9h10.1c1.6,0,2.9,1.3,2.9,2.9v10.1c0,1.6-1.3,2.9-2.9,2.9"/></g><g id="i"><path class="ck" d="m40.6,24.3h-10.1c-1.6,0-2.9-1.3-2.9-2.9h0v-10.1c0-1.6,1.3-2.9,2.9-2.9h10.1c1.6,0,2.9,1.3,2.9,2.9v10.1c0,1.6-1.3,2.9-2.9,2.9"/></g><g id="j"><path class="ck" d="m50.6,45.1h-10.1c-1.6,0-2.9-1.3-2.9-2.9v-10.1c0-1.6,1.3-2.9,2.9-2.9h10.1c1.6,0,2.9,1.3,2.9,2.9v10.1c0,1.6-1.3,2.9-2.9,2.9"/></g><g id="k"><path class="ck" d="m71.4,45.1h-10.1c-1.6,0-2.9-1.3-2.9-2.9h0v-10.1c0-1.6,1.3-2.9,2.9-2.9h10.1c1.6,0,2.9,1.3,2.9,2.9v10.1c0,1.6-1.3,2.9-2.9,2.9h0"/></g><g id="l"><path class="ck" d="m65.5,86.7h-10.4c-1.5,0-2.7-1.2-2.7-2.7v-10.4c0-1.5,1.2-2.7,2.7-2.7h10.4c1.5,0,2.7,1.2,2.7,2.7v10.4c0,1.5-1.2,2.7-2.7,2.7"/></g><g id="m"><path class="ck" d="m86.3,86.7h-10.4c-1.5,0-2.7-1.2-2.7-2.7v-10.4c0-1.5,1.2-2.7,2.7-2.7h10.4c1.5,0,2.7,1.2,2.7,2.7v10.4c0,1.5-1.2,2.7-2.7,2.7"/></g><g id="n"><path class="ck" d="m106.9,86.7h-10.1c-1.6,0-2.9-1.3-2.9-2.9h0v-10.1c0-1.6,1.3-2.9,2.9-2.9h10.1c1.6,0,2.9,1.3,2.9,2.9h0v10.1c0,1.6-1.3,2.9-2.9,2.9h0"/></g><g id="o"><path class="ck" d="m54.3,65.9h-10.1c-1.6,0-2.9-1.3-2.9-2.9v-10.1c0-1.6,1.3-2.9,2.9-2.9h10.1c1.6,0,2.9,1.3,2.9,2.9v10.1c0,1.6-1.3,2.9-2.9,2.9"/></g><g id="p"><path class="ck" d="m20.4,107.5h-10.4c-1.5,0-2.7-1.2-2.7-2.7v-10.4c0-1.5,1.2-2.7,2.7-2.7h10.4c1.5,0,2.7,1.2,2.7,2.7v10.4c0,1.5-1.2,2.7-2.7,2.7"/></g><g id="q"><path class="ck" d="m42,107.5h-10.4c-1.5,0-2.7-1.2-2.7-2.7v-10.4c0-1.5,1.2-2.7,2.7-2.7h10.4c1.5,0,2.7,1.2,2.7,2.7v10.4c0,1.5-1.2,2.7-2.7,2.7"/></g><g id="r"><path class="ck" d="m63.5,107.5h-10.4c-1.5,0-2.7-1.2-2.7-2.7v-10.4c0-1.5,1.2-2.7,2.7-2.7h10.4c1.5,0,2.7,1.2,2.7,2.7v10.4c0,1.5-1.2,2.7-2.7,2.7"/></g><g id="s"><path class="ck" d="m85,107.5h-10.4c-1.5,0-2.7-1.2-2.7-2.7v-10.4c0-1.5,1.2-2.7,2.7-2.7h10.4c1.5,0,2.7,1.2,2.7,2.7v10.4c0,1.5-1.2,2.7-2.7,2.7"/></g><g id="t"><path class="ck" d="m75.1,65.9h-10.1c-1.6,0-2.9-1.3-2.9-2.9h0v-10.1c0-1.6,1.3-2.9,2.9-2.9h10.1c1.6,0,2.9,1.3,2.9,2.9h0v10.1c0,1.6-1.3,2.9-2.9,2.9h0"/></g><g id="u"><path class="ck" d="m95.9,65.9h-10.1c-1.6,0-2.9-1.3-2.9-2.9h0v-10.1c0-1.6,1.3-2.9,2.9-2.9h10.1c1.6,0,2.9,1.3,2.9,2.9h0v10.1c0,1.6-1.3,2.9-2.9,2.9h0"/></g><g id="v"><path class="ck" d="m116.7,65.9h-10.1c-1.6,0-2.9-1.3-2.9-2.9h0v-10.1c0-1.6,1.3-2.9,2.9-2.9h10.1c1.6,0,2.9,1.3,2.9,2.9h0v10.1c0,1.6-1.3,2.9-2.9,2.9h0"/></g><g id="w"><path class="ck" d="m92.2,45.1h-10.1c-1.6,0-2.9-1.3-2.9-2.9h0v-10.1c0-1.6,1.3-2.9,2.9-2.9h10.1c1.6,0,2.9,1.3,2.9,2.9h0v10.1c0,1.6-1.3,2.9-2.9,2.9h0"/></g><g id="x"><path class="ck" d="m113,45.1h-10.1c-1.6,0-2.9-1.3-2.9-2.9h0v-10.1c0-1.6,1.3-2.9,2.9-2.9h10.1c1.6,0,2.9,1.3,2.9,2.9h0v10.1c0,1.6-1.3,2.9-2.9,2.9h0"/></g><g id="y"><path class="ck" d="m133.8,45.1h-10.1c-1.6,0-2.9-1.3-2.9-2.9h0v-10.1c0-1.6,1.3-2.9,2.9-2.9h10.1c1.6,0,2.9,1.3,2.9,2.9h0v10.1c0,1.6-1.3,2.9-2.9,2.9h0"/></g><g id="z"><path class="ck" d="m61.4,24.3h-10.1c-1.6,0-2.9-1.3-2.9-2.9v-10.1c0-1.6,1.3-2.9,2.9-2.9h10.1c1.6,0,2.9,1.3,2.9,2.9v10.1c0,1.6-1.3,2.9-2.9,2.9"/></g><g id="aa"><path class="ck" d="m82.2,24.3h-10.1c-1.6,0-2.9-1.3-2.9-2.9h0v-10.1c0-1.6,1.3-2.9,2.9-2.9h10.1c1.6,0,2.9,1.3,2.9,2.9h0v10.1c0,1.6-1.3,2.9-2.9,2.9h0"/></g><g id="ab"><path class="ck" d="m103,24.3h-10.1c-1.6,0-2.9-1.3-2.9-2.9h0v-10.1c0-1.6,1.3-2.9,2.9-2.9h10.1c1.6,0,2.9,1.3,2.9,2.9h0v10.1c0,1.6-1.3,2.9-2.9,2.9h0"/></g><g id="ac"><path class="ck" d="m123.8,24.3h-10.1c-1.6,0-2.9-1.3-2.9-2.9h0v-10.1c0-1.6,1.3-2.9,2.9-2.9h10.1c1.6,0,2.9,1.3,2.9,2.9h0v10.1c0,1.6-1.3,2.9-2.9,2.9h0"/></g><g id="ad"><path class="ck" d="m144.6,24.3h-10.1c-1.6,0-2.9-1.3-2.9-2.9h0v-10.1c0-1.6,1.3-2.9,2.9-2.9h10.1c1.6,0,2.9,1.3,2.9,2.9h0v10.1c0,1.6-1.3,2.9-2.9,2.9h0"/></g><g id="ae"><path class="ck" d="m165.4,24.3h-10.1c-1.6,0-2.9-1.3-2.9-2.9h0v-10.1c0-1.6,1.3-2.9,2.9-2.9h10.1c1.6,0,2.9,1.3,2.9,2.9h0v10.1c0,1.6-1.3,2.9-2.9,2.9h0"/></g><g id="af"><path class="ck" d="m29.8,45.1H9.7c-1.6,0-2.9-1.3-2.9-2.9v-10.2c0-1.6,1.3-2.9,2.9-2.9h20.1c1.6,0,2.9,1.3,2.9,2.9h0v10.2c0,1.6-1.3,2.9-2.9,2.9h0"/></g><g id="ag"><path class="ck" d="m33.5,65.9H9.7c-1.6,0-2.9-1.3-2.9-2.9v-10.1c0-1.6,1.3-2.9,2.9-2.9h23.8c1.6,0,2.9,1.3,2.9,2.9v10.1c0,1.6-1.3,2.9-2.9,2.9"/></g><g id="ah"><path class="ck" d="m44.7,86.7H9.5c-1.5,0-2.7-1.2-2.7-2.7v-10.4c0-1.5,1.2-2.7,2.7-2.7h35.1c1.5,0,2.7,1.2,2.7,2.7v10.4c0,1.5-1.2,2.7-2.7,2.7"/></g></g></g></g><g id="ai"><g class="cg"><g id="ak"><g id="al"><path class="ck" d="m57.2,110.7c-.4,0-.7-.3-.7-.7,0-.2,0-.4.2-.5L161,5.1c.3-.3.7-.3,1,0,.3.3.3.7,0,1h0L57.7,110.4c-.1.1-.3.2-.5.2"/></g><g id="am"><path class="cj" d="m214.7,62.6c0,.4-.3.7-.7.7h-104.5l1.4-1.4h49.7c.1,0,.2,0,.4,0h34.2c.1,0,.2,0,.4,0h18.5c.4,0,.7.3.7.7"/></g><g id="an"><path class="cj" d="m195.5,61.9c-.1,0-.2,0-.4,0h-34.2c-.1,0-.2,0-.4,0h34.9Z"/></g><g id="ao" class="cc"><g id="ap"><g class="cf"><g id="ar"><g id="as"><path class="ck" d="m203,38.7l-25.8-25.8c-1.7-1.5-4.2-1.5-5.8.1l-25.8,25.8c-1.7,1.6-1.7,4.3,0,6,0,0,0,0,0,0l9.5,9.5,2.2,2.2c.2-.5.5-1,.8-1.4l.8-.8,13.4-14.8c1.4-1.6,2.2-3.7,2.2-5.8v-10.1h7.5v10.1c0,2.1.8,4.2,2.2,5.8l11.6,12.8,7.5-7.5c1.7-1.7,1.6-4.4,0-6,0,0,0,0,0,0m-42.9,7.5c-.3.3,0,1.3-.5,1.3s-.2-1-.5-1.3-1.2-.2-1.2-.5.9-.2,1.2-.5,0-1.3.5-1.3.1,1,.5,1.3,1.2.2,1.2.5-.9.2-1.2.5m9.2-12.2c-.8.8-.1,3.3-1.2,3.3s-.4-2.5-1.2-3.3-3.1-.5-3.1-1.2,2.3-.4,3.1-1.2.1-3.3,1.2-3.3.4,2.5,1.2,3.3,3.1.5,3.1,1.2-2.3.4-3.1,1.2m22.3,6.6c-.5.5,0,2-.7,2s-.2-1.5-.7-2-1.9-.3-1.9-.7,1.4-.3,1.9-.7,0-2,.7-2,.2,1.5.7,2,1.9.3,1.9.7-1.4.3-1.9.7"/></g></g></g></g></g><g id="at"><path class="ch" d="m182,19h-7.9c-.8,0-1.4.6-1.4,1.4s.6,1.4,1.4,1.4h7.9c.8,0,1.4-.6,1.4-1.4s-.6-1.4-1.4-1.4h0"/></g><g id="au"><path class="cj" d="m134.1,64.9v-1.6h-1.4v1.6c-1.5.4-2.3,1.9-2,3.4.4,1.5,1.9,2.3,3.4,2s2.3-1.9,2-3.4c-.3-1-1-1.7-2-2m-.7,4c-.7,0-1.3-.6-1.3-1.3,0-.5.2-.9.6-1.1.4-.3,1-.3,1.4,0,.6.4.8,1.2.4,1.9-.2.4-.7.6-1.1.6"/></g><g id="av"><path class="cj" d="m142.1,66.9v9.5h-6.1c-.4-1.5-1.9-2.4-3.4-2-1.5.4-2.4,1.9-2,3.4.4,1.5,1.9,2.4,3.4,2,1-.3,1.7-1,2-2h7.5v-9.5h8v17.5h-27v-9.5h-28.1l-1.4,1.4h28.1v9.5h29.8v-20.3h-10.9Zm-7.4,10.2c0,.3,0,.5-.2.7-.4.6-1.2.8-1.9.4-.6-.4-.8-1.2-.4-1.9s1.2-.8,1.9-.4c.2.1.3.3.4.4.1.2.2.5.2.7"/></g><g id="aw"><path class="cj" d="m114.4,83.8c-1.3,0-2.4.8-2.7,2.1h-24.7l-1.4,1.4h26.1c.4,1.5,1.9,2.4,3.4,2s2.4-1.9,2-3.4c-.3-1.2-1.4-2.1-2.7-2.1m0,4.1c-.5,0-.9-.2-1.1-.6-.1-.2-.2-.5-.2-.7,0-.7.6-1.3,1.3-1.3.7,0,1.3.6,1.3,1.3,0,.7-.6,1.3-1.3,1.3h0"/></g><g id="ax"><path class="cj" d="m123.9,64.8c-1.3,0-2.3.8-2.7,2.1h-15.2l-1.4,1.4h16.7c.4,1.5,1.9,2.4,3.4,2,1.5-.4,2.4-1.9,2-3.4-.3-1.2-1.4-2.1-2.7-2.1m0,4.1c-.5,0-.9-.2-1.1-.6-.3-.4-.3-1,0-1.4.4-.6,1.2-.8,1.8-.4.6.4.8,1.2.4,1.8-.2.4-.7.6-1.1.6"/></g><g id="ay"><path class="cj" d="m209.7,102.8v-32.5c1.5-.4,2.3-1.9,2-3.4-.4-1.5-1.9-2.3-3.4-2s-2.3,1.9-2,3.4c.3,1,1,1.7,2,2v32.5c-1.5.4-2.4,1.9-2,3.4s1.9,2.4,3.4,2,2.4-1.9,2-3.4c-.3-1-1-1.7-2-2m-2.1-35.2c0-.7.6-1.3,1.3-1.3s1.3.6,1.3,1.3c0,.5-.2.9-.6,1.1-.4.3-1,.3-1.4,0-.4-.2-.6-.7-.6-1.1m1.3,39.2c-.7,0-1.3-.6-1.3-1.3,0-.5.2-.9.6-1.1.4-.3,1-.3,1.4,0,.6.4.8,1.2.4,1.9-.2.4-.7.6-1.1.6"/></g><g id="az"><path class="cj" d="m161.7,102.7c-1.3,0-2.3.8-2.7,2.1h-51.4c-.4-1.5-1.9-2.4-3.4-2-1.5.4-2.4,1.9-2,3.4.4,1.5,1.9,2.4,3.4,2,1-.3,1.7-1,2-2h51.4c.4,1.5,1.9,2.4,3.4,2,1.5-.4,2.4-1.9,2-3.4-.3-1.2-1.4-2.1-2.7-2.1m-55.4,2.8c0,.3,0,.5-.2.7-.2.4-.7.6-1.1.6-.7,0-1.3-.6-1.3-1.3s.6-1.3,1.3-1.3c.7,0,1.3.6,1.3,1.3m55.4,1.3c-.7,0-1.3-.6-1.3-1.3,0-.3,0-.5.2-.7.4-.6,1.2-.8,1.9-.4s.8,1.2.4,1.9c-.2.4-.7.6-1.1.6"/></g><g id="ba"><path class="cj" d="m95.5,102.7c-1.3,0-2.3.8-2.7,2.1h-24.7l-1.4,1.4h26.1c.4,1.5,1.9,2.4,3.4,2s2.4-1.9,2-3.4c-.3-1.2-1.4-2.1-2.7-2.1m0,4.1c-.5,0-.9-.2-1.1-.6-.1-.2-.2-.5-.2-.7,0-.3,0-.5.2-.7.4-.6,1.2-.8,1.9-.4.6.4.8,1.2.4,1.9-.2.4-.7.6-1.1.6"/></g><g id="bb"><path class="cj" d="m164.3,66.9c-.4-1.5-1.9-2.4-3.4-2s-2.4,1.9-2,3.4c.4,1.5,1.9,2.4,3.4,2,1-.3,1.7-1,2-2h34.5v36.4h-26.9v-18.9h-10.9v9.5h-72.3c-.4-1.5-1.9-2.3-3.4-2s-2.3,1.9-2,3.4c.4,1.5,1.9,2.3,3.4,2,1-.3,1.7-1,2-2h73.7v-9.5h8v18.9h29.8v-39.3h-36Zm-1.3.7c0,.3,0,.5-.2.7-.4.6-1.2.8-1.8.4-.6-.4-.8-1.2-.4-1.8.4-.6,1.2-.8,1.8-.4.2.1.3.3.4.4.1.2.2.5.2.7m-75.8,29.1c-.4.6-1.2.8-1.8.4-.6-.4-.8-1.2-.4-1.8.4-.6,1.2-.8,1.8-.4.2.1.3.3.4.4.1.2.2.5.2.7,0,.3,0,.5-.2.7"/></g><g id="bc"><path class="cj" d="m190.1,93.2c-1.3,0-2.3.8-2.7,2.1h-6.1v-8h9.5v-10.9h-26.5c-.4-1.5-1.9-2.4-3.4-2-1.5.4-2.4,1.9-2,3.4s1.9,2.4,3.4,2c1-.3,1.7-1,2-2h25.1v8h-9.5v10.9h7.5c.4,1.5,1.9,2.4,3.4,2,1.5-.4,2.4-1.9,2-3.4-.3-1.2-1.4-2.1-2.7-2.1m-27.1-16.2c0,.3,0,.5-.2.7-.4.6-1.2.8-1.9.4-.6-.4-.8-1.2-.4-1.9.4-.6,1.2-.8,1.9-.4.2.1.3.3.4.4.1.2.2.5.2.7m27.1,20.3c-.7,0-1.3-.6-1.3-1.3,0-.3,0-.5.2-.7.4-.6,1.2-.8,1.8-.4.6.4.8,1.2.4,1.8-.2.4-.7.6-1.1.6"/></g><g id="bd" class="cc"><g id="be"><g class="ce"><g id="bg"><g id="bh"><path class="ck" d="m130.8,52.8l3.5-1.5c.9-.4,2,0,2.4,1,.3.7.1,1.5-.4,2l-2.6,2.6c-.7.7-.7,1.9,0,2.6.3.3.8.5,1.3.5h4.4l-8.6-7.2Z"/></g></g></g></g></g><g id="bi" class="cc"><g id="bj"><g class="cd"><g id="bl"><g id="bm"><path class="ck" d="m141.1,51.2l-4,4c-.3.3-.3.8,0,1.1.1.1.3.2.6.2h5.8c.4,0,.8-.4.8-.8s-.4-.8-.8-.8c-.4,0-.7.2-.8.6l-1.2,4.6-.4-8.9Z"/></g></g></g></g></g><g id="bn"><path class="ch" d="m198.2,55.1l-.8-.8-1.8-2-11.6-12.8c-1.4-1.6-2.2-3.7-2.2-5.8v-10.1h-7.5v10.1c0,2.1-.8,4.2-2.2,5.8l-13.4,14.8-.8.8c-.4.4-.6.9-.8,1.4-.7,2.1.4,4.5,2.5,5.2.3.1.6.2,1,.2.1,0,.2,0,.4,0h34.2c.1,0,.2,0,.4,0,2.2-.2,3.9-2.2,3.7-4.4,0-.9-.4-1.7-1-2.4m-19.6-28.8c0-.4.4-.8.8-.8.2,0,.4,0,.6.2.2.2.2.4.2.6v9.6c0,.4-.3.8-.8.8-.4,0-.8-.3-.8-.8,0,0,0,0,0,0v-9.6Zm2.9,32c-.1,0-.2,0-.4.1,0,0,0,0-.1,0-.5.2-1.1.3-1.7.4-.2,0-.3,0-.5,0-.3,0-.5,0-.8,0-2.3,0-4.5-.9-6.2-2.5-.1-.1-.2-.2-.3-.3-3.3-3.6-3.1-9.2.5-12.5.8-.7,1.7-1.3,2.7-1.7.2,0,.3-.1.5-.2.5-.2,1.1-.3,1.7-.4.2,0,.3,0,.5,0,.2,0,.5,0,.7,0,2.2,0,4.4.8,6,2.4.1.1.2.2.3.3,3.4,3.5,3.3,9.1-.2,12.5-.8.8-1.7,1.4-2.8,1.8"/></g><g id="bo" class="cc"><g id="bp"><g class="cl"><g id="br"><g id="bs"><path class="ck" d="m182.6,50.4l-1.1,1.1v-1.7c0-.2.1-.4.4-.5,0,0,.1,0,.2,0,.2,0,.3,0,.4.2l.2.2c.2.2.2.6,0,.8"/></g><g id="bt"><path class="ck" d="m174.7,48.3v1.7c0,.2-.1.4-.4.5-.2,0-.5,0-.6-.1l-.2-.2c-.2-.2-.2-.6,0-.8l1.1-1.1Z"/></g><g id="bu"><path class="ck" d="m181,52.7v5.8c-.5.2-1.1.3-1.7.4v-4.5l1.7-1.7Z"/></g><g id="bv"><path class="ck" d="m178.8,54.8v4.1c-.3,0-.5,0-.8,0-2.3,0-4.5-.9-6.2-2.5l1.9-1.9,3.1-3.1v2.3c0,.3.1.5.3.7l.2.2c.4.4,1,.4,1.4,0"/></g><g id="bw"><path class="ck" d="m176.9,41.3v4.2l-1.7,1.7v-5.5c.5-.2,1.1-.3,1.7-.4"/></g><g id="bx"><path class="ck" d="m176.9,46.2v4.6l-3.6,3.6-1.7,1.7c-3.3-3.6-3.1-9.2.5-12.5.8-.7,1.7-1.3,2.7-1.7v5.8l-1.5,1.5c-.1.1-.2.3-.3.5,0,.3,0,.7.3.9l.2.2c.4.4,1.1.4,1.5,0,.2-.2.3-.5.3-.7v-2.2l1.7-1.7Z"/></g><g id="by"><path class="ck" d="m178.8,46.1v2.8l-1.5,1.5v-4.6l.3-.3c.1,0,.2-.2.4-.2.2,0,.3,0,.4.2l.2.2c.1.1.2.3.2.4"/></g><g id="bz"><path class="ck" d="m184.1,43.6l-2.2,2.2h0l-1.7,1.7h0l-.9.9v-2.3c0-.3-.1-.5-.3-.7l-.2-.2c-.2-.2-.4-.3-.6-.3-.3,0-.6,0-.8.3v-3.8c.2,0,.5,0,.7,0,2.2,0,4.4.8,6,2.4"/></g><g id="ca"><path class="ck" d="m186.9,50.1c0,3.6-2.2,6.8-5.5,8.2v-6.1l1.5-1.5c.4-.4.4-1.1,0-1.5,0,0,0,0,0,0l-.2-.2c-.4-.4-1.1-.4-1.5,0-.2.2-.3.5-.3.7v2.2l-.6.6-.7.7-.4.4v-4.7l5.1-5.1c1.6,1.6,2.5,3.9,2.5,6.2"/></g><g id="cb"><path class="ck" d="m178.8,49.5v4.7l-.3.3c-.2.2-.6.2-.8,0l-.2-.2c-.1-.1-.2-.3-.2-.4v-2.8l1.5-1.5Z"/></g></g></g></g></g></g></g></g></g></g></g></svg>